<?xml version="1.0" standalone="no"?><!DOCTYPE svg PUBLIC "-//W3C//DTD SVG 1.1//EN" "http://www.w3.org/Graphics/SVG/1.1/DTD/svg11.dtd"><svg t="1625649359018" class="icon" viewBox="0 0 1024 1024" version="1.1" xmlns="http://www.w3.org/2000/svg" p-id="7372" xmlns:xlink="http://www.w3.org/1999/xlink" width="200" height="200"><defs><style type="text/css"></style></defs><path d="M730.14784 250.88c9.59488 0 17.37216 8.02304 17.37216 17.92 0 9.3184-6.89152 16.96768-15.69792 17.83808l-1.67424 0.08192H237.53216C227.9424 286.72 220.16 278.69696 220.16 268.8c0-9.3184 6.89152-16.96768 15.69792-17.83808l1.67424-0.08192h492.61568zM469.00224 491.52C478.61248 491.52 486.4 499.54304 486.4 509.44c0 9.3184-6.90176 16.96768-15.72352 17.83808l-1.67424 0.08192H237.55776C227.94752 527.36 220.16 519.33696 220.16 509.44c0-9.3184 6.90176-16.96768 15.72352-17.83808l1.67424-0.08192h231.44448zM469.00224 737.28c9.61024 0 17.39776 8.02304 17.39776 17.92 0 9.3184-6.90176 16.96768-15.72352 17.83808l-1.67424 0.08192H237.55776c-9.61024 0-17.39776-8.02304-17.39776-17.92 0-9.3184 6.90176-16.96768 15.72352-17.83808l1.67424-0.08192h231.44448z" fill="#212228" p-id="7373"></path><path d="M717.4912 675.00544a16.896 16.896 0 0 1 22.85056 0.3328l1.21344 1.26976 63.17568 72.97536a17.42336 17.42336 0 0 1-1.58208 24.3712 16.896 16.896 0 0 1-22.85056-0.3328l-1.21344-1.26976-63.17568-72.97536a17.42336 17.42336 0 0 1 1.58208-24.3712z" fill="#FA5A00" p-id="7374"></path><path d="M655.36 465.92c-67.8656 0-122.88 55.0144-122.88 122.88s55.0144 122.88 122.88 122.88 122.88-55.0144 122.88-122.88-55.0144-122.88-122.88-122.88z m0 35.84c48.07168 0 87.04 38.96832 87.04 87.04s-38.96832 87.04-87.04 87.04-87.04-38.96832-87.04-87.04 38.96832-87.04 87.04-87.04z" fill="#FA5A00" p-id="7375"></path></svg>