<?xml version="1.0" standalone="no"?><!DOCTYPE svg PUBLIC "-//W3C//DTD SVG 1.1//EN" "http://www.w3.org/Graphics/SVG/1.1/DTD/svg11.dtd"><svg t="1626080878452" class="icon" viewBox="0 0 1024 1024" version="1.1" xmlns="http://www.w3.org/2000/svg" p-id="5772" xmlns:xlink="http://www.w3.org/1999/xlink" width="200" height="200"><defs><style type="text/css"></style></defs><path d="M840 64H184c-66.3 0-120 53.7-120 120v656c0 66.3 53.7 120 120 120h656c66.3 0 120-53.7 120-120V184c0-66.3-53.7-120-120-120zM256 527c-8.3 0-15-6.7-15-15s6.7-15 15-15h241V256c0-8.3 6.7-15 15-15s15 6.7 15 15v241h241c8.3 0 15 6.7 15 15s-6.7 15-15 15H527v241c0 8.3-6.7 15-15 15s-15-6.7-15-15V527H256z" p-id="5773"></path></svg>