<?xml version="1.0" standalone="no"?><!DOCTYPE svg PUBLIC "-//W3C//DTD SVG 1.1//EN" "http://www.w3.org/Graphics/SVG/1.1/DTD/svg11.dtd"><svg t="1625640289106" class="icon" viewBox="0 0 1024 1024" version="1.1" xmlns="http://www.w3.org/2000/svg" p-id="4964" xmlns:xlink="http://www.w3.org/1999/xlink" width="200" height="200"><defs><style type="text/css"></style></defs><path d="M806 699H226c-17.7 0-32 14.3-32 32s14.3 32 32 32h580c17.7 0 32-14.3 32-32s-14.3-32-32-32zM678.7 369.7c-10.3-10.3-27.3-10.3-37.6 0L525.5 485.3c-4.1-1.1-8.4-1.6-12.9-1.6-28.5 0-51.6 23.1-51.6 51.6s23.1 51.6 51.6 51.6 51.6-23.1 51.6-51.6c0-4.1-0.5-8.1-1.4-12l115.9-115.9c10.3-10.4 10.3-27.4 0-37.7z m184.8 89.6c-8.9-58.4-31-111.7-64.1-154.4-29.3-37.9-66.8-67.4-111.3-87.7-46.7-21.4-100.4-32.2-159.7-32.2h-1.6c-59.5 0-113.3 10.7-160 31.9-42.8 19.5-79.8 47.7-109.8 84-80.7 97.5-98.1 238.1-79.5 334.2 3.4 17.4 20.1 28.7 37.5 25.3 17.4-3.4 28.7-20.1 25.3-37.5-8-41.2-7.4-91.7 1.7-138.4 10.8-55.7 33-105 64.2-142.7 51-61.5 125.1-92.8 220.5-92.8h1.6c96.1 0 172.3 32.9 220.5 95.1 26.8 34.5 44 76.5 51.4 124.8 7.2 47.7 4 100.4-9.4 152.2-4.4 17.1 5.9 34.6 23 39 2.7 0.7 5.4 1 8 1 14.2 0 27.2-9.6 31-24 15.5-60.1 19.2-121.6 10.7-177.8z" p-id="4965"></path></svg>